<svg xmlns="http://www.w3.org/2000/svg" viewBox="0 0 462 462"><path d="M457.8 158.4l-50.2-62.6c-.6-.7-1.2-1.3-1.9-1.8-2.2-2.6-5.4-4.2-9-4.2H65.3c-3.6 0-6.8 1.7-9 4.2-.7.5-1.3 1.1-1.9 1.8L4.3 158.4s0 .1-.1.1c-2.6 2.2-4.2 5.3-4.2 8.9v193.1c0 6.5 5.3 11.8 11.8 11.8h438.5c6.5 0 11.8-5.3 11.8-11.8V167.4c-.1-3.6-1.7-6.8-4.3-9zm-49.3-23.8l16.9 21h-16.9v-21zM385 113.3v42.3h-88.1c-2.5 0-5 .8-7 2.3L231 201.2l-58.8-43.3c-2-1.5-4.5-2.3-7-2.3H77.1v-42.3H385zM53.5 155.6H36.7l16.9-21c-.1 0-.1 21-.1 21zm385 193.1h-415V179.2h137.8l62.7 46.1c4.1 3 9.8 3.1 14 0l62.7-46.1h137.8v169.5z" fill="#007bff"/></svg>